<svg xmlns="http://www.w3.org/2000/svg" viewBox="0 0 511.999 511.999"><path d="M504.994 265.731a7.503 7.503 0 0 0-7.995 6.988c-2.75 40.955-15.851 79.193-36.69 112.105l-53.664-30.983c.108-1.186.072 9.629.072-187.06 0-5.565-2.994-10.75-7.813-13.533L264.105 75.424c-.1-.058-.203-.107-.304-.162V15.168c122.567 3.816 224.269 100.626 233.123 223.553.297 4.136 3.899 7.246 8.029 6.95a7.507 7.507 0 0 0 6.95-8.029C502.285 104.109 390.885.019 256.291.019 114.638.019 0 114.646 0 256.311 0 391.305 104.585 502.66 238.25 511.962a7.51 7.51 0 0 0 1.043-14.981c-73.615-5.123-137.882-43.479-178.531-99.712l53.564-30.925 134.153 77.453a15.624 15.624 0 0 0 7.813 2.086c2.701 0 5.403-.696 7.813-2.086l134.153-77.453 53.599 30.945c-40.79 56.365-105.287 94.592-178.566 99.692a7.508 7.508 0 0 0-6.969 8.012 7.508 7.508 0 0 0 8.012 6.969c127.478-8.871 229.101-110.941 237.649-238.235a7.51 7.51 0 0 0-6.989-7.996zM113.679 153.249a15.671 15.671 0 0 0-7.812 13.533v1.165c0 198.165-.039 184.673.072 185.895l-53.623 30.959C-47.293 227.342 63.073 20.873 248.782 15.165v60.097c-.101.055-.204.105-.304.162l-1.007.582-.003.001-133.789 77.242zm135.103 273.382c-3.996-2.309-117.444-67.808-126.584-73.085a2.636 2.636 0 0 1-1.314-2.275V181.353c134.506 77.657 126.73 73.221 127.897 73.769v171.509zm6.195-185.201l-131.995-76.208 130.931-75.593c.748.25 1.547.391 2.379.391s1.631-.141 2.379-.391l130.931 75.593-131.998 76.208c-.741.428-1.807.473-2.627 0zm136.721 110.738a7.536 7.536 0 0 0-.78 1.071L263.8 426.63V255.114c1.113-.524-6.489 3.827 127.897-73.76v170.814z"/></svg>