<svg xmlns="http://www.w3.org/2000/svg" viewBox="0 0 511.844 511.844"><path d="M44.228 56.045h-.086c-2.202 0-3.952 1.788-3.952 3.999s1.828 3.999 4.038 3.999c2.202 0 3.999-1.788 3.999-3.999s-1.797-3.999-3.999-3.999zm15.995 0h-.086c-2.202 0-3.952 1.788-3.952 3.999s1.828 3.999 4.038 3.999c2.202 0 3.999-1.788 3.999-3.999s-1.797-3.999-3.999-3.999zm15.995 0h-.086c-2.202 0-3.952 1.788-3.952 3.999s1.828 3.999 4.038 3.999c2.203 0 3.999-1.788 3.999-3.999s-1.797-3.999-3.999-3.999zM428.11 160.014h-.086c-2.203 0-3.951 1.789-3.951 3.999s1.826 3.999 4.037 3.999a4 4 0 0 0 0-7.998zm79.735 175.821H3.999A3.997 3.997 0 0 0 0 339.834a3.996 3.996 0 0 0 3.999 3.998h503.846a3.996 3.996 0 0 0 3.998-3.998 3.996 3.996 0 0 0-3.998-3.999zm-251.924 15.98c-8.818 0-15.995 7.178-15.995 15.995s7.177 15.995 15.995 15.995 15.996-7.178 15.996-15.995-7.178-15.995-15.996-15.995zm0 23.992c-4.413 0-7.998-3.584-7.998-7.997s3.585-7.997 7.998-7.997c4.412 0 7.998 3.584 7.998 7.997s-3.586 7.997-7.998 7.997zm-51.07 32.099c-2.164-.461-4.295.891-4.772 3.039l-15.995 71.978a4.005 4.005 0 0 0 3.905 4.865 4.002 4.002 0 0 0 3.906-3.132l15.995-71.978a4.007 4.007 0 0 0-3.039-4.772zm122.908 75.017l-15.996-71.978c-.476-2.148-2.599-3.5-4.771-3.039a4.005 4.005 0 0 0-3.037 4.772l15.994 71.978a4 4 0 0 0 7.81-1.733z"/><path d="M335.898 479.791H175.946a3.996 3.996 0 0 0-3.999 3.998 3.996 3.996 0 0 0 3.999 3.999h159.952a3.996 3.996 0 0 0 3.998-3.999 3.996 3.996 0 0 0-3.998-3.998zM483.851 48.048H27.991a3.997 3.997 0 0 0-3.999 3.999v263.919a3.997 3.997 0 0 0 3.999 3.999h455.86c2.211 0 4-1.789 4-3.999V52.047a3.997 3.997 0 0 0-4-3.999zm-3.998 263.919H31.99V56.046h447.863v255.921z"/><path d="M483.851 24.056H27.991C12.559 24.056 0 36.614 0 52.047V371.95c0 15.432 12.558 27.991 27.991 27.991h455.86c15.433 0 27.992-12.559 27.992-27.992V52.047c0-15.432-12.558-27.991-27.992-27.991zm19.994 347.893c0 11.027-8.965 19.993-19.994 19.993H27.991c-11.028 0-19.994-8.966-19.994-19.993V52.047c0-11.024 8.966-19.994 19.994-19.994h455.86c11.029 0 19.994 8.97 19.994 19.994v319.902z"/><path d="M507.846 367.951c-2.211 0-4 1.788-4 3.999v15.87c0 11.215-8.777 19.993-19.994 19.993H27.992c-11.215 0-19.994-8.778-19.994-19.993v-15.995c0-2.211-1.789-3.999-3.999-3.999S0 369.614 0 371.825v15.995c0 15.698 12.293 27.991 27.991 27.991h455.86c15.699 0 27.992-12.293 27.993-27.991v-15.87a3.996 3.996 0 0 0-3.998-3.999zM483.851 64.043H27.991c-2.21 0-3.999 1.789-3.999 3.999s1.789 3.999 3.999 3.999h455.86c2.211 0 4-1.789 4-3.999s-1.789-3.999-4-3.999zM51.983 80.038a3.997 3.997 0 0 0-3.999 3.999v215.934a3.997 3.997 0 0 0 3.999 3.999 3.996 3.996 0 0 0 3.999-3.999V84.037a3.997 3.997 0 0 0-3.999-3.999z"/><path d="M411.874 64.043c-2.211 0-4 1.789-4 3.999v247.924a3.997 3.997 0 0 0 4 3.999 3.997 3.997 0 0 0 3.998-3.999V68.042a3.997 3.997 0 0 0-3.998-3.999z"/><path d="M483.851 128.024h-71.977c-2.211 0-4 1.789-4 3.999a3.997 3.997 0 0 0 4 3.999h71.977c2.211 0 4-1.789 4-3.999a3.997 3.997 0 0 0-4-3.999zM51.984 104.03H27.991c-2.21 0-3.999 1.788-3.999 3.999s1.789 3.999 3.999 3.999h23.992c2.211 0 4-1.788 4-3.999s-1.789-3.999-3.999-3.999zm0 23.994H27.991a3.997 3.997 0 0 0-3.999 3.999 3.997 3.997 0 0 0 3.999 3.999h23.992c2.211 0 4-1.789 4-3.999a3.997 3.997 0 0 0-3.999-3.999zm0 23.992H27.991c-2.21 0-3.999 1.788-3.999 3.999s1.789 3.999 3.999 3.999h23.992c2.211 0 4-1.788 4-3.999s-1.789-3.999-3.999-3.999zm0 23.993H27.991c-2.21 0-3.999 1.789-3.999 3.999s1.789 3.999 3.999 3.999h23.992a3.998 3.998 0 0 0 4-3.999 3.997 3.997 0 0 0-3.999-3.999zm0 23.992H27.991A3.997 3.997 0 0 0 23.992 204a3.997 3.997 0 0 0 3.999 3.999h23.992a3.997 3.997 0 0 0 4-3.999 3.997 3.997 0 0 0-3.999-3.999zm0 23.993H27.991a3.997 3.997 0 0 0-3.999 3.999 3.997 3.997 0 0 0 3.999 3.999h23.992a3.998 3.998 0 0 0 4-3.999 3.997 3.997 0 0 0-3.999-3.999zm0 23.992H27.991a3.997 3.997 0 0 0-3.999 3.999 3.997 3.997 0 0 0 3.999 3.999h23.992a3.997 3.997 0 0 0 4-3.999 3.997 3.997 0 0 0-3.999-3.999zm0 23.994H27.991a3.997 3.997 0 0 0-3.999 3.999 3.996 3.996 0 0 0 3.999 3.998h23.992a3.997 3.997 0 0 0 4-3.998 3.997 3.997 0 0 0-3.999-3.999zm0 23.993H27.991a3.996 3.996 0 0 0-3.999 3.998 3.997 3.997 0 0 0 3.999 3.999h23.992a3.997 3.997 0 0 0 4-3.999 3.996 3.996 0 0 0-3.999-3.998zm0-215.935H27.991c-2.21 0-3.999 1.789-3.999 3.999s1.789 3.999 3.999 3.999h23.992c2.211 0 4-1.789 4-3.999s-1.789-3.999-3.999-3.999zm415.873 7.997h-39.988c-2.211 0-3.998 1.788-3.998 3.999s1.787 3.999 3.998 3.999h39.988c2.209 0 3.998-1.788 3.998-3.999s-1.789-3.999-3.998-3.999zm0 15.995h-39.988c-2.211 0-3.998 1.788-3.998 3.999s1.787 3.999 3.998 3.999h39.988c2.209 0 3.998-1.788 3.998-3.999s-1.789-3.999-3.998-3.999zm0 55.984h-23.992c-2.211 0-4 1.789-4 3.999a3.997 3.997 0 0 0 4 3.999h23.992a3.997 3.997 0 0 0 3.998-3.999 3.997 3.997 0 0 0-3.998-3.999zm-39.747 23.992h-.086c-2.203 0-3.951 1.788-3.951 3.999s1.826 3.999 4.037 3.999a4 4 0 0 0 0-7.998zm39.747 0h-23.992c-2.211 0-4 1.788-4 3.999s1.789 3.999 4 3.999h23.992c2.209 0 3.998-1.788 3.998-3.999s-1.789-3.999-3.998-3.999zm-39.747 23.993h-.086c-2.203 0-3.951 1.789-3.951 3.999s1.826 3.999 4.037 3.999a4 4 0 0 0 0-7.998zm39.747 0h-23.992c-2.211 0-4 1.789-4 3.999s1.789 3.999 4 3.999h23.992a3.997 3.997 0 0 0 3.998-3.999 3.997 3.997 0 0 0-3.998-3.999zm-39.747 23.992h-.086c-2.203 0-3.951 1.789-3.951 3.999 0 2.211 1.826 3.999 4.037 3.999a3.999 3.999 0 0 0 0-7.998zm39.747 0h-23.992c-2.211 0-4 1.789-4 3.999a3.997 3.997 0 0 0 4 3.999h23.992a3.996 3.996 0 0 0 3.998-3.999 3.997 3.997 0 0 0-3.998-3.999zm-39.747 23.994h-.086c-2.203 0-3.951 1.789-3.951 3.999s1.826 3.999 4.037 3.999a4 4 0 0 0 0-7.998zm39.747 0h-23.992c-2.211 0-4 1.789-4 3.999a3.997 3.997 0 0 0 4 3.999h23.992a3.997 3.997 0 0 0 3.998-3.999 3.997 3.997 0 0 0-3.998-3.999zm-39.747 23.992h-.086c-2.203 0-3.951 1.789-3.951 3.999s1.826 3.999 4.037 3.999a4 4 0 0 0 0-7.998zm39.747 0h-23.992c-2.211 0-4 1.789-4 3.999a3.997 3.997 0 0 0 4 3.999h23.992a3.997 3.997 0 0 0 3.998-3.999 3.997 3.997 0 0 0-3.998-3.999zm-210.075 1.297c-2.741-1.024-6.475-2.038-10.63-3.171-12.434-3.358-31.217-8.45-31.217-18.119 0-2.21-1.788-3.999-3.999-3.999s-3.999 1.789-3.999 3.999c0 15.792 21.454 21.603 37.121 25.844 3.882 1.046 7.365 1.983 9.927 2.944 13.292 4.975 16.933 9.067 16.933 19.041v4.154H87.973v-4.154c0-9.974 3.64-14.066 16.933-19.041 2.562-.961 6.045-1.89 9.919-2.944 15.667-4.241 37.129-10.044 37.129-25.844 0-2.21-1.788-3.999-3.999-3.999s-3.999 1.789-3.999 3.999c0 9.677-18.791 14.761-31.225 18.127-4.147 1.125-7.873 2.14-10.622 3.163-14.02 5.248-22.134 11.277-22.134 26.539v8.153a3.997 3.997 0 0 0 3.999 3.999h191.941a3.999 3.999 0 0 0 4-3.999v-8.153c0-15.262-8.113-21.291-22.133-26.539z"/><path d="M147.954 237.092a3.997 3.997 0 0 0-3.999 3.999v18.893a3.997 3.997 0 0 0 3.999 3.999 3.997 3.997 0 0 0 3.999-3.999v-18.893a3.997 3.997 0 0 0-3.999-3.999zm63.981-.461a3.997 3.997 0 0 0-3.999 3.999v19.354a3.998 3.998 0 1 0 7.998 0V240.63a3.997 3.997 0 0 0-3.999-3.999zm-103.969-68.62a3.997 3.997 0 0 0-3.999 3.999v111.568a3.996 3.996 0 0 0 3.999 3.998 3.996 3.996 0 0 0 3.999-3.998V172.01a3.997 3.997 0 0 0-3.999-3.999zm143.972 0a3.997 3.997 0 0 0-3.999 3.999l-.031 111.568a3.996 3.996 0 0 0 3.999 3.998 3.997 3.997 0 0 0 3.999-3.998l.031-111.568a4 4 0 0 0-3.999-3.999z"/><path d="M179.944 96.033c-62.325 0-75.977 54.843-75.977 75.977a3.997 3.997 0 0 0 3.999 3.999 3.997 3.997 0 0 0 3.999-3.999c0-18.909 12.215-67.979 67.979-67.979 63.09 0 67.995 52.031 67.995 67.979a3.997 3.997 0 0 0 3.999 3.999 3.995 3.995 0 0 0 3.998-3.999c0-36.731-19.962-75.977-75.992-75.977zm55.983 86.974a3.997 3.997 0 0 0-3.999 3.999c0 37.649-37.746 68.979-51.984 68.979-12.621 0-46.97-26.188-51.492-60.505-.289-2.194-2.351-3.725-4.491-3.44a4.002 4.002 0 0 0-3.444 4.487c5.053 38.293 42.573 67.456 59.427 67.456 19.245 0 59.982-36.419 59.982-76.977a3.997 3.997 0 0 0-3.999-3.999z"/><path d="M239.567 121.015c-1.648-1.445-4.171-1.285-5.647.378-41.534 47.564-125.781 62.528-126.633 62.673a4.007 4.007 0 0 0-3.265 4.615 4.007 4.007 0 0 0 4.624 3.265c3.561-.613 87.879-15.565 131.303-65.288a4 4 0 0 0-.382-5.643z"/><path d="M252.533 176.059c-27.953-4.429-45.244-26.691-45.416-26.914a3.999 3.999 0 0 0-6.366 4.839c.773 1.02 19.33 25.032 50.531 29.972a4.003 4.003 0 0 0 4.578-3.324 4.003 4.003 0 0 0-3.327-4.573zm-128.571 99.006a3.997 3.997 0 0 0-3.999 3.999v36.902a3.997 3.997 0 0 0 3.999 3.999 3.998 3.998 0 0 0 3.999-3.999v-36.902a3.997 3.997 0 0 0-3.999-3.999zm111.965 0a3.997 3.997 0 0 0-3.999 3.999v36.902a3.997 3.997 0 0 0 3.999 3.999 3.997 3.997 0 0 0 3.999-3.999v-36.902a3.997 3.997 0 0 0-3.999-3.999zm143.957-155.039h-87.975a3.997 3.997 0 0 0-3.998 3.999v127.96a3.997 3.997 0 0 0 3.998 3.999h87.975a3.996 3.996 0 0 0 3.998-3.999v-127.96a3.996 3.996 0 0 0-3.998-3.999zm-4 127.961h-79.975V128.024h79.975v119.963z"/><path d="M323.9 144.018c-6.615 0-11.996 5.382-11.996 11.997s5.381 11.997 11.996 11.997 11.998-5.382 11.998-11.997c0-6.616-5.383-11.997-11.998-11.997zm0 15.997c-2.201 0-3.998-1.792-3.998-3.999s1.797-3.999 3.998-3.999c2.203 0 4 1.792 4 3.999s-1.797 3.999-4 3.999z"/><path d="M363.888 152.016h-31.99c-2.209 0-3.998 1.788-3.998 3.999s1.789 3.999 3.998 3.999h31.99c2.211 0 4-1.788 4-3.999s-1.789-3.999-4-3.999zm-47.985 0h-7.998c-2.211 0-3.998 1.788-3.998 3.999s1.787 3.999 3.998 3.999h7.998c2.209 0 3.998-1.788 3.998-3.999s-1.789-3.999-3.998-3.999zm7.997 55.983c-6.615 0-11.996 5.381-11.996 11.996 0 6.616 5.381 11.997 11.996 11.997s11.998-5.382 11.998-11.997-5.383-11.996-11.998-11.996zm0 15.996a4.004 4.004 0 0 1-3.998-3.999 4.004 4.004 0 0 1 3.998-3.999c2.203 0 4 1.792 4 3.999s-1.797 3.999-4 3.999z"/><path d="M363.888 215.996h-31.99a3.997 3.997 0 0 0-3.998 3.999 3.996 3.996 0 0 0 3.998 3.999h31.99c2.211 0 4-1.788 4-3.999a3.997 3.997 0 0 0-4-3.999zm-47.985 0h-7.998a3.996 3.996 0 0 0-3.998 3.999 3.995 3.995 0 0 0 3.998 3.999h7.998a3.996 3.996 0 0 0 3.998-3.999 3.997 3.997 0 0 0-3.998-3.999zm31.991-39.987c-6.615 0-11.996 5.382-11.996 11.997s5.381 11.996 11.996 11.996 11.996-5.382 11.996-11.996c0-6.616-5.381-11.997-11.996-11.997zm0 15.996c-2.203 0-4-1.792-4-3.999s1.797-3.999 4-3.999c2.201 0 3.998 1.792 3.998 3.999s-1.797 3.999-3.998 3.999z"/><path d="M339.896 184.006h-31.99c-2.211 0-3.998 1.788-3.998 3.999s1.787 3.999 3.998 3.999h31.99c2.211 0 3.998-1.788 3.998-3.999s-1.787-3.999-3.998-3.999zm23.992 0h-7.998c-2.209 0-3.998 1.788-3.998 3.999s1.789 3.999 3.998 3.999h7.998c2.211 0 4-1.788 4-3.999s-1.789-3.999-4-3.999z"/></svg>