<svg xmlns="http://www.w3.org/2000/svg" viewBox="0 0 480 480"><path d="M56 403.209H40a8 8 0 0 0 0 16h16a8 8 0 0 0 0-16zm384 0h-11.568l-52-83.2a8.013 8.013 0 0 0-11.04-2.56 8.013 8.013 0 0 0-2.56 11.04l46.768 74.72H198.44l52.8-84.48a8.013 8.013 0 0 0-2.56-11.04 8.013 8.013 0 0 0-11.04 2.56l-18.264 29.216-28.696-44.584a8.312 8.312 0 0 0-13.456 0L107.64 403.209H88a8 8 0 0 0 0 16h352a8 8 0 0 0 0-16zm-313.344 0L184 314.001l26.04 40.464-30.472 48.744h-52.912z"/><path d="M472 115.209h-9.08l10.68-18.48c11.038-19.039 4.552-43.422-14.487-54.46l-.105-.06-13.976-8.096c-19.096-10.969-43.466-4.439-54.52 14.608l-38.408 66.488H8a8 8 0 0 0-8 8v320a8 8 0 0 0 8 8h464a8 8 0 0 0 8-8v-320a8 8 0 0 0-8-8zm-67.632-58.488c6.628-11.402 21.229-15.297 32.656-8.712l13.944 8.096c11.419 6.537 15.376 21.094 8.838 32.512l-.078.136-12 20.8-55.416-32 12.056-20.832zm-20.08 34.696l55.4 32-8 13.888-55.392-32 7.992-13.888zm-16 27.76l55.384 32-82.296 142.616-8.88-33.136a7.891 7.891 0 0 0 1-1.288l49.432-85.6a8 8 0 0 0-13.856-8l-49.44 85.6a7.89 7.89 0 0 0-.504 1.504l-33.192 8.904 82.352-142.6zm-38.864 191.816l-56.48 37.352 4-67.6 41.36-11.096 11.12 41.344zM16 435.209v-304h326.856L262.4 270.489a7.08 7.08 0 0 0-.392.96l-.088.216a7.752 7.752 0 0 0-.488 2.112c0 .136-.08.256-.088.392l-5.344 89.2a8 8 0 0 0 12.4 7.152l74.64-49.36c.16-.104.256-.256.408-.376l.08-.056c.2-.16.424-.28.608-.456l.104-.088c.128-.128.224-.304.344-.44.198-.229.382-.47.552-.72.145-.169.281-.345.408-.528l12-20.72c0-.048 0-.096.048-.144l96.104-166.424H464v304H16z"/><path d="M152 219.209c0-17.673-14.327-32-32-32s-32 14.327-32 32 14.327 32 32 32 32-14.327 32-32zm-32 16c-8.837 0-16-7.163-16-16s7.163-16 16-16 16 7.163 16 16-7.163 16-16 16zm0-56a8 8 0 0 0 8-8v-16a8 8 0 0 0-16 0v16a8 8 0 0 0 8 8zm-38.928-11.456l8 13.856a8 8 0 0 0 13.856-8l-8-13.856a8 8 0 1 0-13.909 7.909l.053.091zm-20.496 26.384l13.856 8a8 8 0 1 0 8.091-13.803l-.092-.053-13.856-8a8 8 0 0 0-7.999 13.856zM56 227.209h16a8 8 0 0 0 0-16H56a8 8 0 0 0 0 16zm29.36 12a8 8 0 0 0-10.928-2.928l-13.856 8a8 8 0 1 0 7.909 13.909l.092-.053 13.856-8a8 8 0 0 0 2.927-10.928zm-1.432 42.371a8 8 0 0 0 10.947-2.856l.053-.092 8-13.856a8 8 0 0 0-13.856-8l-8 13.856a8 8 0 0 0 2.856 10.948zM112 267.209v16a8 8 0 0 0 16 0v-16a8 8 0 0 0-16 0zm25.072-2.432l8 13.856a8 8 0 1 0 13.909-7.909l-.053-.092-8-13.856a8 8 0 1 0-13.909 7.909l.053.092zm38.344-5.568a8 8 0 0 0 4-14.928l-13.856-8a8 8 0 0 0-8 13.856l13.856 8a7.936 7.936 0 0 0 4 1.072zm-15.416-40a8 8 0 0 0 8 8h16a8 8 0 0 0 0-16h-16a8 8 0 0 0-8 8zm-5.36-20a8 8 0 0 0 10.928 2.928l13.856-8a8 8 0 1 0-7.909-13.909l-.092.053-13.856 8a8 8 0 0 0-2.927 10.928zM140 184.569a8 8 0 0 0 10.928-2.928l8-13.856a8 8 0 0 0-13.856-8l-8 13.856A8 8 0 0 0 140 184.569z"/></svg>