<svg xmlns="http://www.w3.org/2000/svg" viewBox="0 0 54 54"><path d="M41.824 0H12.176C5.462 0 0 5.462 0 12.176v29.648C0 48.538 5.462 54 12.176 54h29.648C48.538 54 54 48.538 54 41.824V12.176C54 5.462 48.538 0 41.824 0zM52 41.824C52 47.435 47.435 52 41.824 52H12.176C6.565 52 2 47.435 2 41.824V12.176C2 6.565 6.565 2 12.176 2h29.648C47.435 2 52 6.565 52 12.176v29.648z"/><path d="M19.84 12L11.6 40h3.12l2.64-9.04h8.32L28.44 40h3.24l-8.52-28h-3.32zm-1.72 16l3.36-11.36L24.96 28h-6.84zm18.739-16.4c-.44 0-.827.167-1.16.5-.334.334-.5.714-.5 1.141s.166.807.5 1.14c.333.334.72.5 1.16.5.44 0 .82-.16 1.14-.479.32-.32.48-.707.48-1.16S38.32 12.4 38 12.08c-.32-.32-.7-.48-1.141-.48zm-1.5 8.36h2.88V40h-2.88z"/></svg>