<svg xmlns="http://www.w3.org/2000/svg" viewBox="0 0 512 512"><path d="M457.479 112.685H126.01c-7.651 0-13.875 6.225-13.875 13.876v331.468c0 7.651 6.224 13.876 13.875 13.876h331.47c7.651 0 13.876-6.225 13.876-13.876V126.56c-.001-7.65-6.226-13.875-13.877-13.875zm-330.375 14.969h329.283v277.444l-75.417-101.42c-3.589-4.826-8.771-7.593-14.219-7.593.998 0-7.867-.948-14.221 7.593l-37.66 50.646-59.258-79.691c-3.992-5.367-9.731-8.444-15.747-8.444s-11.755 3.079-15.745 8.444l-97.016 130.466V127.654zm-.001 329.283v-26.755l109.027-146.62c1.155-1.553 2.48-2.407 3.733-2.407 1.254 0 2.581.854 3.735 2.408l61.942 83.301-66.976 90.072H127.103zm329.284 0H257.22l107.32-144.328c1.531-2.056 2.895-2.049 4.418 0l87.429 117.574v26.754z"/><path d="M324.971 177.545c-22.448 0-40.711 18.263-40.711 40.711 0 22.448 18.262 40.71 40.711 40.71 22.447 0 40.71-18.263 40.71-40.71 0-22.448-18.263-40.711-40.71-40.711zm0 66.452c-14.194 0-25.742-11.547-25.742-25.741s11.548-25.742 25.742-25.742 25.741 11.548 25.741 25.742-11.547 25.741-25.741 25.741zM377.778 0h-7.071a7.484 7.484 0 1 0 0 14.968h7.071a7.484 7.484 0 0 0 0-14.968zm-42.429 0h-7.072a7.484 7.484 0 1 0 0 14.968h7.072c4.134 0 7.484-3.351 7.484-7.484S339.484 0 335.349 0zM123.202 0h-7.072a7.484 7.484 0 1 0 0 14.968h7.072a7.484 7.484 0 1 0 0-14.968zm297.005 0h-7.071a7.484 7.484 0 1 0 0 14.968h7.071c4.134 0 7.484-3.351 7.484-7.484S424.342 0 420.207 0zM80.773 0h-7.071a7.484 7.484 0 1 0 0 14.968h7.071a7.484 7.484 0 0 0 0-14.968zM250.49 0h-7.071a7.484 7.484 0 1 0 0 14.968h7.071a7.484 7.484 0 0 0 0-14.968zm-42.43 0h-7.071a7.484 7.484 0 1 0 0 14.968h7.071a7.484 7.484 0 1 0 0-14.968zm-42.428 0h-7.072a7.484 7.484 0 1 0 0 14.968h7.072a7.484 7.484 0 0 0 0-14.968zm127.287 0h-7.072a7.484 7.484 0 1 0 0 14.968h7.072a7.484 7.484 0 1 0 0-14.968zM8.035 181.839a7.484 7.484 0 0 0-7.484 7.484v7.071c0 4.134 3.35 7.484 7.484 7.484s7.484-3.35 7.484-7.484v-7.071a7.484 7.484 0 0 0-7.484-7.484zm424.44-158.747a7.484 7.484 0 0 0-7.484 7.484v7.071a7.484 7.484 0 1 0 14.968 0v-7.071a7.484 7.484 0 0 0-7.484-7.484zM8.035 224.269a7.483 7.483 0 0 0-7.484 7.484v7.071c0 4.134 3.35 7.484 7.484 7.484s7.484-3.35 7.484-7.484v-7.071a7.483 7.483 0 0 0-7.484-7.484zm0-212.147a7.484 7.484 0 0 0-7.484 7.484v7.071a7.484 7.484 0 1 0 14.968 0v-7.071a7.484 7.484 0 0 0-7.484-7.484zm0 254.575a7.484 7.484 0 0 0-7.484 7.484v7.072c0 4.134 3.35 7.484 7.484 7.484s7.484-3.35 7.484-7.484v-7.072a7.483 7.483 0 0 0-7.484-7.484zm0-212.146a7.484 7.484 0 0 0-7.484 7.484v7.071a7.484 7.484 0 1 0 14.968 0v-7.071a7.484 7.484 0 0 0-7.484-7.484zm0 42.43a7.484 7.484 0 0 0-7.484 7.484v7.071a7.484 7.484 0 1 0 14.968 0v-7.071a7.484 7.484 0 0 0-7.484-7.484zm0 42.429a7.484 7.484 0 0 0-7.484 7.484v7.071a7.484 7.484 0 1 0 14.968 0v-7.071a7.484 7.484 0 0 0-7.484-7.484zM38.343 0h-7.071a7.484 7.484 0 1 0 0 14.968h7.071a7.484 7.484 0 1 0 0-14.968z"/><path d="M497.3 72.592h-57.362c-.216-3.94-3.469-7.071-7.463-7.071s-7.248 3.131-7.463 7.071H309.209a7.484 7.484 0 1 0 0 14.968h187.272v409.471H87.01V321.032c0-4.134-3.35-7.484-7.484-7.484s-7.484 3.35-7.484 7.484v103.854a7.454 7.454 0 0 0-2.528-.447h-7.072a7.484 7.484 0 1 0-.001 14.968h7.072c.888 0 1.737-.163 2.528-.447v58.89c0 7.803 6.348 14.149 14.149 14.149H497.3c7.803 0 14.149-6.348 14.149-14.149V86.74c0-7.801-6.348-14.148-14.149-14.148zM27.083 424.44h-7.072c-4.134 0-7.484 3.35-7.484 7.484s3.35 7.484 7.484 7.484h7.072c4.134 0 7.484-3.35 7.484-7.484s-3.349-7.484-7.484-7.484zM8.035 393.986a7.483 7.483 0 0 0-7.484 7.484v7.071c0 4.134 3.35 7.484 7.484 7.484s7.484-3.35 7.484-7.484v-7.071a7.483 7.483 0 0 0-7.484-7.484zm0-42.43a7.484 7.484 0 0 0-7.484 7.484v7.071c0 4.134 3.35 7.484 7.484 7.484s7.484-3.35 7.484-7.484v-7.071a7.483 7.483 0 0 0-7.484-7.484zm0-42.429a7.483 7.483 0 0 0-7.484 7.484v7.072c0 4.134 3.35 7.484 7.484 7.484s7.484-3.35 7.484-7.484v-7.072a7.483 7.483 0 0 0-7.484-7.484zM274.282 72.592H86.19c-7.803 0-14.149 6.347-14.149 14.148v199.365c0 4.134 3.35 7.484 7.484 7.484s7.484-3.35 7.484-7.484V87.56h187.273a7.484 7.484 0 1 0 0-14.968z"/></svg>