<svg xmlns="http://www.w3.org/2000/svg" viewBox="0 0 54 54"><path d="M41.824 0H12.176C5.462 0 0 5.462 0 12.176v29.648C0 48.538 5.462 54 12.176 54h29.648C48.538 54 54 48.538 54 41.824V12.176C54 5.462 48.538 0 41.824 0zM52 41.824C52 47.435 47.435 52 41.824 52H12.176C6.565 52 2 47.435 2 41.824V12.176C2 6.565 6.565 2 12.176 2h29.648C47.435 2 52 6.565 52 12.176v29.648z"/><path d="M13.56 14.64l2.64.08V40h2.88V12h-5.52zm23.6 6.12c-1.147-.746-2.554-1.12-4.22-1.12s-3.086.254-4.26.761c-2.267 1.04-3.4 2.96-3.4 5.76v7.56c0 2.641 1.04 4.494 3.12 5.561 1.573.8 3.333 1.2 5.28 1.2 1.946 0 4.066-.16 6.36-.48V12h-2.88v8.76zm0 16.72a26.85 26.85 0 0 1-4.16.32c-1.414 0-2.6-.359-3.56-1.08-.88-.692-1.32-1.653-1.32-2.88v-7.12c0-1.253.353-2.286 1.06-3.1.706-.813 1.846-1.22 3.42-1.22 1.653 0 3.173.373 4.56 1.119V37.48z"/></svg>