<svg xmlns="http://www.w3.org/2000/svg" viewBox="0 0 54 54"><path d="M41.824 0H12.176C5.462 0 0 5.462 0 12.176v29.648C0 48.538 5.462 54 12.176 54h29.648C48.538 54 54 48.538 54 41.824V12.176C54 5.462 48.538 0 41.824 0zM52 41.824C52 47.435 47.435 52 41.824 52H12.176C6.565 52 2 47.435 2 41.824V12.176C2 6.565 6.565 2 12.176 2h29.648C47.435 2 52 6.565 52 12.176v29.648z"/><path d="M19.92 12h-9.64v28h2.88v-9.2h7.04c1.36 0 2.533-.246 3.52-.74.986-.493 1.72-1.065 2.2-1.72.48-.653.86-1.493 1.14-2.52.28-1.026.446-1.88.5-2.561.053-.68.08-1.486.08-2.42 0-2.64-.634-4.773-1.9-6.399-1.267-1.627-3.207-2.44-5.82-2.44zm4.82 10.6c-.014.4-.107 1-.28 1.801-.173.8-.414 1.413-.72 1.84-.307.427-.794.826-1.46 1.2-.667.372-1.48.559-2.44.559h-6.68V14.8h6.52c3.386 0 5.08 2.027 5.08 6.08 0 .747-.007 1.32-.02 1.72zm16.48 6.84a48.197 48.197 0 0 0-3.18-1.16A14.233 14.233 0 0 1 35.16 27c-.854-.506-1.28-1.2-1.28-2.08 0-.8.34-1.46 1.02-1.979.68-.521 1.713-.78 3.1-.78 1.386 0 2.506.334 3.36 1l.92-2.521-.48-.28c-.32-.187-.854-.38-1.6-.58a9.25 9.25 0 0 0-2.4-.3c-2.427 0-4.18.579-5.26 1.739s-1.62 2.414-1.62 3.761.493 2.486 1.48 3.42c.8.8 1.727 1.387 2.78 1.76 1.053.374 2.1.727 3.14 1.06 1.04.334 1.92.787 2.64 1.36.72.573 1.08 1.347 1.08 2.32s-.42 1.72-1.26 2.239c-.84.521-1.834.78-2.98.78s-2.16-.273-3.04-.82c-.88-.546-1.374-1.313-1.48-2.3l-2.8.12c.053 1.6.733 2.947 2.04 4.04 1.306 1.093 3.113 1.64 5.42 1.64 2.306 0 4.06-.554 5.26-1.659 1.2-1.106 1.8-2.406 1.8-3.9 0-1.493-.367-2.693-1.1-3.6s-1.627-1.573-2.68-2z"/></svg>