<?xml version="1.0" encoding="iso-8859-1"?>
<!-- Generator: Adobe Illustrator 19.0.0, SVG Export Plug-In . SVG Version: 6.00 Build 0)  -->
<svg version="1.1" id="Capa_1" xmlns="http://www.w3.org/2000/svg" xmlns:xlink="http://www.w3.org/1999/xlink" x="0px" y="0px"
	 viewBox="0 0 511.844 511.844" style="enable-background:new 0 0 511.844 511.844;" xml:space="preserve">
<g>
	<g>
		<path d="M44.228,56.045h-0.086c-2.202,0-3.952,1.788-3.952,3.999s1.828,3.999,4.038,3.999c2.202,0,3.999-1.788,3.999-3.999
			S46.43,56.045,44.228,56.045z"/>
	</g>
</g>
<g>
	<g>
		<path d="M60.223,56.045h-0.086c-2.202,0-3.952,1.788-3.952,3.999s1.828,3.999,4.038,3.999c2.202,0,3.999-1.788,3.999-3.999
			S62.425,56.045,60.223,56.045z"/>
	</g>
</g>
<g>
	<g>
		<path d="M76.218,56.045h-0.086c-2.202,0-3.952,1.788-3.952,3.999s1.828,3.999,4.038,3.999c2.203,0,3.999-1.788,3.999-3.999
			S78.42,56.045,76.218,56.045z"/>
	</g>
</g>
<g>
	<g>
		<path d="M428.11,160.014h-0.086c-2.203,0-3.951,1.789-3.951,3.999c0,2.21,1.826,3.999,4.037,3.999
			c2.204,0,3.999-1.789,3.998-3.999C432.108,161.803,430.313,160.014,428.11,160.014z"/>
	</g>
</g>
<g>
	<g>
		<path d="M507.845,335.835H3.999c-2.21,0-3.999,1.788-3.999,3.999c0,2.21,1.789,3.998,3.999,3.998h503.846
			c2.209,0,3.998-1.788,3.998-3.998C511.843,337.623,510.054,335.835,507.845,335.835z"/>
	</g>
</g>
<g>
	<g>
		<path d="M255.921,351.815c-8.818,0-15.995,7.178-15.995,15.995c0,8.817,7.177,15.995,15.995,15.995s15.996-7.178,15.996-15.995
			C271.917,358.993,264.739,351.815,255.921,351.815z M255.921,375.807c-4.413,0-7.998-3.584-7.998-7.997
			c0-4.413,3.585-7.997,7.998-7.997c4.412,0,7.998,3.584,7.998,7.997C263.919,372.223,260.333,375.807,255.921,375.807z"/>
	</g>
</g>
<g>
	<g>
		<path d="M204.851,407.906c-2.164-0.461-4.295,0.891-4.772,3.039l-15.995,71.978c-0.477,2.155,0.883,4.288,3.038,4.771
			c0.289,0.063,0.586,0.094,0.867,0.094c1.835,0,3.491-1.264,3.906-3.132l15.995-71.978
			C208.366,410.523,207.007,408.39,204.851,407.906z"/>
	</g>
</g>
<g>
	<g>
		<path d="M327.759,482.923l-15.996-71.978c-0.476-2.148-2.599-3.5-4.771-3.039c-2.156,0.484-3.514,2.617-3.037,4.772l15.994,71.978
			c0.414,1.867,2.07,3.132,3.904,3.132c0.281,0,0.578-0.031,0.867-0.094C326.876,487.211,328.236,485.078,327.759,482.923z"/>
	</g>
</g>
<g>
	<g>
		<path d="M335.898,479.791H175.946c-2.211,0-3.999,1.788-3.999,3.998c0,2.211,1.788,3.999,3.999,3.999h159.952
			c2.209,0,3.998-1.788,3.998-3.999C339.896,481.579,338.107,479.791,335.898,479.791z"/>
	</g>
</g>
<g>
	<g>
		<path d="M483.851,48.048H27.991c-2.21,0-3.999,1.789-3.999,3.999v263.919c0,2.21,1.789,3.999,3.999,3.999h455.86
			c2.211,0,4-1.789,4-3.999V52.047C487.851,49.837,486.062,48.048,483.851,48.048z M479.853,311.967H31.99V56.046h447.863V311.967z"
			/>
	</g>
</g>
<g>
	<g>
		<path d="M483.851,24.056H27.991C12.559,24.056,0,36.614,0,52.047V371.95c0,15.432,12.558,27.991,27.991,27.991h455.86
			c15.433,0,27.992-12.559,27.992-27.992V52.047C511.843,36.615,499.285,24.056,483.851,24.056z M503.845,371.949
			c0,11.027-8.965,19.993-19.994,19.993H27.991c-11.028,0-19.994-8.966-19.994-19.993V52.047c0-11.024,8.966-19.994,19.994-19.994
			h455.86c11.029,0,19.994,8.97,19.994,19.994V371.949z"/>
	</g>
</g>
<g>
	<g>
		<path d="M507.846,367.951c-2.211,0-4,1.788-4,3.999v15.87c0,11.215-8.777,19.993-19.994,19.993H27.992
			c-11.215,0-19.994-8.778-19.994-19.993v-15.995c0-2.211-1.789-3.999-3.999-3.999S0,369.614,0,371.825v15.995
			c0,15.698,12.293,27.991,27.991,27.991h455.86c15.699,0,27.992-12.293,27.993-27.991v-15.87
			C511.844,369.739,510.055,367.951,507.846,367.951z"/>
	</g>
</g>
<g>
	<g>
		<path d="M483.851,64.043H27.991c-2.21,0-3.999,1.789-3.999,3.999s1.789,3.999,3.999,3.999h455.86c2.211,0,4-1.789,4-3.999
			S486.062,64.043,483.851,64.043z"/>
	</g>
</g>
<g>
	<g>
		<path d="M51.983,80.038c-2.211,0-3.999,1.789-3.999,3.999v215.934c0,2.211,1.789,3.999,3.999,3.999
			c2.211,0,3.999-1.788,3.999-3.999V84.037C55.982,81.827,54.194,80.038,51.983,80.038z"/>
	</g>
</g>
<g>
	<g>
		<path d="M411.874,64.043c-2.211,0-4,1.789-4,3.999v247.924c0,2.21,1.789,3.999,4,3.999c2.209,0,3.998-1.789,3.998-3.999V68.042
			C415.872,65.832,414.083,64.043,411.874,64.043z"/>
	</g>
</g>
<g>
	<g>
		<path d="M483.851,128.024h-71.977c-2.211,0-4,1.789-4,3.999c0,2.21,1.789,3.999,4,3.999h71.977c2.211,0,4-1.789,4-3.999
			C487.851,129.813,486.062,128.024,483.851,128.024z"/>
	</g>
</g>
<g>
	<g>
		<path d="M51.984,104.03H27.991c-2.21,0-3.999,1.788-3.999,3.999s1.789,3.999,3.999,3.999h23.992c2.211,0,4-1.788,4-3.999
			S54.194,104.03,51.984,104.03z"/>
	</g>
</g>
<g>
	<g>
		<path d="M51.984,128.024H27.991c-2.21,0-3.999,1.789-3.999,3.999c0,2.21,1.789,3.999,3.999,3.999h23.992c2.211,0,4-1.789,4-3.999
			C55.983,129.813,54.194,128.024,51.984,128.024z"/>
	</g>
</g>
<g>
	<g>
		<path d="M51.984,152.016H27.991c-2.21,0-3.999,1.788-3.999,3.999s1.789,3.999,3.999,3.999h23.992c2.211,0,4-1.788,4-3.999
			S54.194,152.016,51.984,152.016z"/>
	</g>
</g>
<g>
	<g>
		<path d="M51.984,176.009H27.991c-2.21,0-3.999,1.789-3.999,3.999s1.789,3.999,3.999,3.999h23.992c2.211,0,3.999-1.789,4-3.999
			C55.983,177.798,54.194,176.009,51.984,176.009z"/>
	</g>
</g>
<g>
	<g>
		<path d="M51.984,200.001H27.991c-2.21,0-3.999,1.789-3.999,3.999c0,2.211,1.789,3.999,3.999,3.999h23.992
			c2.211,0,3.999-1.788,4-3.999C55.983,201.79,54.194,200.001,51.984,200.001z"/>
	</g>
</g>
<g>
	<g>
		<path d="M51.984,223.994H27.991c-2.21,0-3.999,1.789-3.999,3.999c0,2.21,1.789,3.999,3.999,3.999h23.992
			c2.211,0,3.999-1.789,4-3.999C55.983,225.783,54.194,223.994,51.984,223.994z"/>
	</g>
</g>
<g>
	<g>
		<path d="M51.984,247.986H27.991c-2.21,0-3.999,1.789-3.999,3.999c0,2.21,1.789,3.999,3.999,3.999h23.992
			c2.211,0,3.999-1.788,4-3.999C55.983,249.775,54.194,247.986,51.984,247.986z"/>
	</g>
</g>
<g>
	<g>
		<path d="M51.984,271.98H27.991c-2.21,0-3.999,1.788-3.999,3.999c0,2.21,1.789,3.998,3.999,3.998h23.992
			c2.211,0,3.999-1.788,4-3.998C55.983,273.768,54.194,271.98,51.984,271.98z"/>
	</g>
</g>
<g>
	<g>
		<path d="M51.984,295.973H27.991c-2.21,0-3.999,1.788-3.999,3.998c0,2.211,1.789,3.999,3.999,3.999h23.992
			c2.211,0,3.999-1.788,4-3.999C55.983,297.761,54.194,295.973,51.984,295.973z"/>
	</g>
</g>
<g>
	<g>
		<path d="M51.984,80.038H27.991c-2.21,0-3.999,1.789-3.999,3.999s1.789,3.999,3.999,3.999h23.992c2.211,0,4-1.789,4-3.999
			S54.194,80.038,51.984,80.038z"/>
	</g>
</g>
<g>
	<g>
		<path d="M467.857,88.035h-39.988c-2.211,0-3.998,1.788-3.998,3.999s1.787,3.999,3.998,3.999h39.988
			c2.209,0,3.998-1.788,3.998-3.999S470.066,88.035,467.857,88.035z"/>
	</g>
</g>
<g>
	<g>
		<path d="M467.857,104.03h-39.988c-2.211,0-3.998,1.788-3.998,3.999s1.787,3.999,3.998,3.999h39.988
			c2.209,0,3.998-1.788,3.998-3.999S470.066,104.03,467.857,104.03z"/>
	</g>
</g>
<g>
	<g>
		<path d="M467.857,160.014h-23.992c-2.211,0-4,1.789-4,3.999c0,2.21,1.789,3.999,4,3.999h23.992c2.209,0,3.998-1.789,3.998-3.999
			C471.855,161.803,470.066,160.014,467.857,160.014z"/>
	</g>
</g>
<g>
	<g>
		<path d="M428.11,184.006h-0.086c-2.203,0-3.951,1.788-3.951,3.999s1.826,3.999,4.037,3.999c2.204,0,3.998-1.788,3.998-3.999
			S430.313,184.006,428.11,184.006z"/>
	</g>
</g>
<g>
	<g>
		<path d="M467.857,184.006h-23.992c-2.211,0-4,1.788-4,3.999s1.789,3.999,4,3.999h23.992c2.209,0,3.998-1.788,3.998-3.999
			S470.066,184.006,467.857,184.006z"/>
	</g>
</g>
<g>
	<g>
		<path d="M428.11,207.999h-0.086c-2.203,0-3.951,1.789-3.951,3.999s1.826,3.999,4.037,3.999c2.204,0,3.999-1.789,3.998-3.999
			C432.108,209.788,430.313,207.999,428.11,207.999z"/>
	</g>
</g>
<g>
	<g>
		<path d="M467.857,207.999h-23.992c-2.211,0-4,1.789-4,3.999s1.789,3.999,4,3.999h23.992c2.209,0,3.998-1.789,3.998-3.999
			C471.855,209.788,470.066,207.999,467.857,207.999z"/>
	</g>
</g>
<g>
	<g>
		<path d="M428.11,231.991h-0.086c-2.203,0-3.951,1.789-3.951,3.999c0,2.211,1.826,3.999,4.037,3.999
			c2.204,0,3.999-1.788,3.998-3.999C432.108,233.78,430.313,231.991,428.11,231.991z"/>
	</g>
</g>
<g>
	<g>
		<path d="M467.857,231.991h-23.992c-2.211,0-4,1.789-4,3.999c0,2.211,1.789,3.999,4,3.999h23.992c2.209,0,3.998-1.788,3.998-3.999
			C471.855,233.78,470.066,231.991,467.857,231.991z"/>
	</g>
</g>
<g>
	<g>
		<path d="M428.11,255.985h-0.086c-2.203,0-3.951,1.789-3.951,3.999c0,2.21,1.826,3.999,4.037,3.999
			c2.204,0,3.998-1.789,3.998-3.999C432.108,257.774,430.313,255.985,428.11,255.985z"/>
	</g>
</g>
<g>
	<g>
		<path d="M467.857,255.985h-23.992c-2.211,0-4,1.789-4,3.999c0,2.21,1.789,3.999,4,3.999h23.992c2.209,0,3.998-1.789,3.998-3.999
			C471.855,257.774,470.066,255.985,467.857,255.985z"/>
	</g>
</g>
<g>
	<g>
		<path d="M428.11,279.977h-0.086c-2.203,0-3.951,1.789-3.951,3.999c0,2.21,1.826,3.999,4.037,3.999
			c2.204,0,3.998-1.789,3.998-3.999C432.108,281.766,430.313,279.977,428.11,279.977z"/>
	</g>
</g>
<g>
	<g>
		<path d="M467.857,279.977h-23.992c-2.211,0-4,1.789-4,3.999c0,2.21,1.789,3.999,4,3.999h23.992c2.209,0,3.998-1.789,3.998-3.999
			C471.855,281.766,470.066,279.977,467.857,279.977z"/>
	</g>
</g>
<g>
	<g>
		<path d="M257.782,281.274c-2.741-1.024-6.475-2.038-10.63-3.171c-12.434-3.358-31.217-8.45-31.217-18.119
			c0-2.21-1.788-3.999-3.999-3.999s-3.999,1.789-3.999,3.999c0,15.792,21.454,21.603,37.121,25.844
			c3.882,1.046,7.365,1.983,9.927,2.944c13.292,4.975,16.933,9.067,16.933,19.041v4.154H87.973v-4.154
			c0-9.974,3.64-14.066,16.933-19.041c2.562-0.961,6.045-1.89,9.919-2.944c15.667-4.241,37.129-10.044,37.129-25.844
			c0-2.21-1.788-3.999-3.999-3.999s-3.999,1.789-3.999,3.999c0,9.677-18.791,14.761-31.225,18.127
			c-4.147,1.125-7.873,2.14-10.622,3.163c-14.02,5.248-22.134,11.277-22.134,26.539v8.153c0,2.21,1.789,3.999,3.999,3.999h191.941
			c2.211,0,3.998-1.789,4-3.999v-8.153C279.915,292.551,271.802,286.522,257.782,281.274z"/>
	</g>
</g>
<g>
	<g>
		<path d="M147.954,237.092c-2.211,0-3.999,1.789-3.999,3.999v18.893c0,2.21,1.789,3.999,3.999,3.999
			c2.211,0,3.999-1.79,3.999-3.999v-18.893C151.953,238.881,150.165,237.092,147.954,237.092z"/>
	</g>
</g>
<g>
	<g>
		<path d="M211.935,236.631c-2.211,0-3.999,1.789-3.999,3.999v19.354c0,2.21,1.789,3.999,3.999,3.999c2.21,0,3.998-1.79,3.999-3.999
			V240.63C215.934,238.42,214.146,236.631,211.935,236.631z"/>
	</g>
</g>
<g>
	<g>
		<path d="M107.966,168.011c-2.21,0-3.999,1.789-3.999,3.999v111.568c0,2.21,1.789,3.998,3.999,3.998
			c2.21,0,3.999-1.788,3.999-3.998V172.01C111.965,169.799,110.176,168.011,107.966,168.011z"/>
	</g>
</g>
<g>
	<g>
		<path d="M251.938,168.011c-2.21,0-3.999,1.789-3.999,3.999l-0.031,111.568c0,2.21,1.789,3.998,3.999,3.998
			c2.21,0,3.998-1.788,3.999-3.998l0.031-111.568C255.937,169.803,254.148,168.011,251.938,168.011z"/>
	</g>
</g>
<g>
	<g>
		<path d="M179.944,96.033c-62.325,0-75.977,54.843-75.977,75.977c0,2.211,1.789,3.999,3.999,3.999c2.21,0,3.999-1.789,3.999-3.999
			c0-18.909,12.215-67.979,67.979-67.979c63.09,0,67.995,52.031,67.995,67.979c0,2.211,1.789,3.999,3.999,3.999
			c2.21,0,3.999-1.788,3.998-3.999C255.936,135.279,235.974,96.033,179.944,96.033z"/>
	</g>
</g>
<g>
	<g>
		<path d="M235.927,183.007c-2.21,0-3.999,1.789-3.999,3.999c0,37.649-37.746,68.979-51.984,68.979
			c-12.621,0-46.97-26.188-51.492-60.505c-0.289-2.194-2.351-3.725-4.491-3.44c-2.186,0.289-3.733,2.296-3.444,4.487
			c5.053,38.293,42.573,67.456,59.427,67.456c19.245,0,59.982-36.419,59.982-76.977
			C239.926,184.796,238.137,183.007,235.927,183.007z"/>
	</g>
</g>
<g>
	<g>
		<path d="M239.567,121.015c-1.648-1.445-4.171-1.285-5.647,0.378c-41.534,47.564-125.781,62.528-126.633,62.673
			c-2.171,0.374-3.632,2.44-3.265,4.615c0.336,1.948,2.032,3.323,3.937,3.323c0.226,0,0.453-0.02,0.687-0.058
			c3.561-0.613,87.879-15.565,131.303-65.288C241.402,124.994,241.23,122.468,239.567,121.015z"/>
	</g>
</g>
<g>
	<g>
		<path d="M252.533,176.059c-27.953-4.429-45.244-26.691-45.416-26.914c-1.344-1.753-3.835-2.093-5.6-0.757
			c-1.758,1.336-2.102,3.839-0.766,5.596c0.773,1.02,19.33,25.032,50.531,29.972c0.211,0.035,0.422,0.051,0.633,0.051
			c1.928,0,3.631-1.402,3.945-3.375C256.203,178.453,254.712,176.403,252.533,176.059z"/>
	</g>
</g>
<g>
	<g>
		<path d="M123.962,275.065c-2.21,0-3.999,1.789-3.999,3.999v36.902c0,2.21,1.789,3.999,3.999,3.999
			c2.209,0,3.999-1.789,3.999-3.999v-36.902C127.961,276.854,126.172,275.065,123.962,275.065z"/>
	</g>
</g>
<g>
	<g>
		<path d="M235.927,275.065c-2.21,0-3.999,1.789-3.999,3.999v36.902c0,2.21,1.789,3.999,3.999,3.999c2.21,0,3.999-1.789,3.999-3.999
			v-36.902C239.926,276.854,238.137,275.065,235.927,275.065z"/>
	</g>
</g>
<g>
	<g>
		<path d="M379.884,120.026h-87.975c-2.209,0-3.998,1.789-3.998,3.999v127.96c0,2.21,1.789,3.999,3.998,3.999h87.975
			c2.209,0,3.998-1.788,3.998-3.999v-127.96C383.882,121.814,382.093,120.026,379.884,120.026z M375.884,247.987h-79.975V128.024
			h79.975V247.987z"/>
	</g>
</g>
<g>
	<g>
		<path d="M323.9,144.018c-6.615,0-11.996,5.382-11.996,11.997c0,6.615,5.381,11.997,11.996,11.997s11.998-5.382,11.998-11.997
			C335.898,149.399,330.515,144.018,323.9,144.018z M323.9,160.015c-2.201,0-3.998-1.792-3.998-3.999s1.797-3.999,3.998-3.999
			c2.203,0,4,1.792,4,3.999S326.103,160.015,323.9,160.015z"/>
	</g>
</g>
<g>
	<g>
		<path d="M363.888,152.016h-31.99c-2.209,0-3.998,1.788-3.998,3.999s1.789,3.999,3.998,3.999h31.99c2.211,0,4-1.788,4-3.999
			S366.099,152.016,363.888,152.016z"/>
	</g>
</g>
<g>
	<g>
		<path d="M315.903,152.016h-7.998c-2.211,0-3.998,1.788-3.998,3.999s1.787,3.999,3.998,3.999h7.998
			c2.209,0,3.998-1.788,3.998-3.999S318.112,152.016,315.903,152.016z"/>
	</g>
</g>
<g>
	<g>
		<path d="M323.9,207.999c-6.615,0-11.996,5.381-11.996,11.996c0,6.616,5.381,11.997,11.996,11.997s11.998-5.382,11.998-11.997
			S330.515,207.999,323.9,207.999z M323.9,223.995c-2.201,0-3.998-1.792-3.998-3.999c0-2.207,1.797-3.999,3.998-3.999
			c2.203,0,4,1.792,4,3.999S326.103,223.995,323.9,223.995z"/>
	</g>
</g>
<g>
	<g>
		<path d="M363.888,215.996h-31.99c-2.209,0-3.998,1.789-3.998,3.999c0,2.211,1.789,3.999,3.998,3.999h31.99
			c2.211,0,4-1.788,4-3.999C367.888,217.785,366.099,215.996,363.888,215.996z"/>
	</g>
</g>
<g>
	<g>
		<path d="M315.903,215.996h-7.998c-2.211,0-3.998,1.789-3.998,3.999c0,2.211,1.787,3.999,3.998,3.999h7.998
			c2.209,0,3.998-1.788,3.998-3.999C319.901,217.785,318.112,215.996,315.903,215.996z"/>
	</g>
</g>
<g>
	<g>
		<path d="M347.894,176.009c-6.615,0-11.996,5.382-11.996,11.997s5.381,11.996,11.996,11.996s11.996-5.382,11.996-11.996
			C359.89,181.39,354.509,176.009,347.894,176.009z M347.894,192.005c-2.203,0-4-1.792-4-3.999s1.797-3.999,4-3.999
			c2.201,0,3.998,1.792,3.998,3.999S350.095,192.005,347.894,192.005z"/>
	</g>
</g>
<g>
	<g>
		<path d="M339.896,184.006h-31.99c-2.211,0-3.998,1.788-3.998,3.999s1.787,3.999,3.998,3.999h31.99
			c2.211,0,3.998-1.788,3.998-3.999S342.107,184.006,339.896,184.006z"/>
	</g>
</g>
<g>
	<g>
		<path d="M363.888,184.006h-7.998c-2.209,0-3.998,1.788-3.998,3.999s1.789,3.999,3.998,3.999h7.998c2.211,0,4-1.788,4-3.999
			S366.099,184.006,363.888,184.006z"/>
	</g>
</g>
<g>
</g>
<g>
</g>
<g>
</g>
<g>
</g>
<g>
</g>
<g>
</g>
<g>
</g>
<g>
</g>
<g>
</g>
<g>
</g>
<g>
</g>
<g>
</g>
<g>
</g>
<g>
</g>
<g>
</g>
</svg>
