<?xml version="1.0" encoding="iso-8859-1"?>
<!-- Generator: Adobe Illustrator 19.0.0, SVG Export Plug-In . SVG Version: 6.00 Build 0)  -->
<svg version="1.1" id="Capa_1" xmlns="http://www.w3.org/2000/svg" xmlns:xlink="http://www.w3.org/1999/xlink" x="0px" y="0px"
	 viewBox="0 0 480 480" style="enable-background:new 0 0 480 480;" xml:space="preserve">
<g>
	<g>
		<g>
			<path d="M56,403.209H40c-4.418,0-8,3.582-8,8s3.582,8,8,8h16c4.418,0,8-3.582,8-8S60.418,403.209,56,403.209z"/>
			<path d="M440,403.209h-11.568l-52-83.2c-2.342-3.756-7.284-4.902-11.04-2.56c-3.756,2.342-4.902,7.284-2.56,11.04l46.768,74.72
				H198.44l52.8-84.48c2.342-3.755,1.196-8.698-2.56-11.04c-3.755-2.342-8.698-1.196-11.04,2.56l-18.264,29.216l-28.696-44.584
				c-2.696-3.716-7.893-4.543-11.609-1.847c-0.709,0.515-1.333,1.138-1.847,1.847L107.64,403.209H88c-4.418,0-8,3.582-8,8
				s3.582,8,8,8h352c4.418,0,8-3.582,8-8S444.418,403.209,440,403.209z M126.656,403.209L184,314.001l26.04,40.464l-30.472,48.744
				L126.656,403.209z"/>
			<path d="M472,115.209h-9.08l10.68-18.48c11.038-19.039,4.552-43.422-14.487-54.46c-0.035-0.02-0.07-0.04-0.105-0.06
				l-13.976-8.096c-19.096-10.969-43.466-4.439-54.52,14.608l-38.408,66.488H8c-4.418,0-8,3.582-8,8v320c0,4.418,3.582,8,8,8h464
				c4.418,0,8-3.582,8-8v-320C480,118.791,476.418,115.209,472,115.209z M404.368,56.721c6.628-11.402,21.229-15.297,32.656-8.712
				l13.944,8.096c11.419,6.537,15.376,21.094,8.838,32.512c-0.026,0.045-0.052,0.091-0.078,0.136l-12,20.8l-55.416-32
				L404.368,56.721z M384.288,91.417l55.4,32l-8,13.888l-55.392-32L384.288,91.417z M368.288,119.177l55.384,32l-82.296,142.616
				l-8.88-33.136c0.377-0.394,0.712-0.825,1-1.288l49.432-85.6c2.183-3.841,0.839-8.725-3.002-10.908
				c-3.805-2.163-8.641-0.867-10.854,2.908l-49.44,85.6c-0.218,0.483-0.387,0.987-0.504,1.504l-33.192,8.904L368.288,119.177z
				 M329.424,310.993l-56.48,37.352l4-67.6l41.36-11.096L329.424,310.993z M16,435.209v-304h326.856L262.4,270.489
				c-0.154,0.31-0.285,0.631-0.392,0.96l-0.088,0.216c-0.261,0.678-0.425,1.389-0.488,2.112c0,0.136-0.08,0.256-0.088,0.392
				l-5.344,89.2c-0.265,4.41,3.095,8.201,7.505,8.466c1.731,0.104,3.449-0.357,4.895-1.314l74.64-49.36
				c0.16-0.104,0.256-0.256,0.408-0.376l0.08-0.056c0.2-0.16,0.424-0.28,0.608-0.456l0.104-0.088
				c0.128-0.128,0.224-0.304,0.344-0.44c0.198-0.229,0.382-0.47,0.552-0.72c0.145-0.169,0.281-0.345,0.408-0.528l12-20.72
				c0-0.048,0-0.096,0.048-0.144l96.104-166.424H464l0,304H16z"/>
			<path d="M152,219.209c0-17.673-14.327-32-32-32s-32,14.327-32,32s14.327,32,32,32S152,236.882,152,219.209z M120,235.209
				c-8.837,0-16-7.163-16-16s7.163-16,16-16s16,7.163,16,16S128.837,235.209,120,235.209z"/>
			<path d="M120,179.209c4.418,0,8-3.582,8-8v-16c0-4.418-3.582-8-8-8s-8,3.582-8,8v16C112,175.627,115.582,179.209,120,179.209z"/>
			<path d="M81.072,167.753l8,13.856c2.234,3.812,7.136,5.09,10.947,2.856c3.776-2.214,5.072-7.051,2.909-10.856l-8-13.856
				c-2.184-3.841-7.068-5.184-10.909-3s-5.184,7.068-3,10.909C81.037,167.692,81.054,167.722,81.072,167.753z"/>
			<path d="M60.576,194.137l13.856,8c3.812,2.234,8.713,0.956,10.947-2.856c2.234-3.812,0.956-8.713-2.856-10.947
				c-0.03-0.018-0.061-0.035-0.092-0.053l-13.856-8c-3.841-2.184-8.725-0.841-10.909,3C55.504,187.086,56.8,191.923,60.576,194.137z
				"/>
			<path d="M56,227.209h16c4.418,0,8-3.582,8-8s-3.582-8-8-8H56c-4.418,0-8,3.582-8,8S51.582,227.209,56,227.209z"/>
			<path d="M85.36,239.209c-2.209-3.826-7.102-5.137-10.928-2.928l-13.856,8c-3.841,2.184-5.184,7.068-3,10.909
				s7.068,5.184,10.909,3c0.031-0.017,0.061-0.035,0.092-0.053l13.856-8C86.258,247.928,87.569,243.035,85.36,239.209z"/>
			<path d="M83.928,281.58c3.812,2.234,8.713,0.956,10.947-2.856c0.018-0.03,0.035-0.061,0.053-0.092l8-13.856
				c2.209-3.826,0.898-8.719-2.928-10.928v0c-3.826-2.209-8.719-0.898-10.928,2.928l-8,13.856
				C78.838,274.444,80.116,279.346,83.928,281.58z"/>
			<path d="M112,267.209v16c0,4.418,3.582,8,8,8s8-3.582,8-8v-16c0-4.418-3.582-8-8-8S112,262.79,112,267.209z"/>
			<path d="M137.072,264.777l8,13.856c2.184,3.841,7.068,5.184,10.909,3s5.184-7.068,3-10.909c-0.017-0.031-0.035-0.061-0.053-0.092
				l-8-13.856c-2.184-3.841-7.068-5.184-10.909-3c-3.841,2.184-5.184,7.068-3,10.909
				C137.037,264.716,137.054,264.746,137.072,264.777z"/>
			<path d="M175.416,259.209c4.418,0,8-3.582,8-8c0-2.858-1.525-5.499-4-6.928l-13.856-8c-3.841-2.184-8.725-0.841-10.909,3
				c-2.163,3.805-0.867,8.642,2.909,10.856l13.856,8C172.631,258.842,174.011,259.212,175.416,259.209z"/>
			<path d="M160,219.209c0,4.418,3.582,8,8,8h16c4.418,0,8-3.582,8-8s-3.582-8-8-8h-16C163.582,211.209,160,214.79,160,219.209z"/>
			<path d="M154.64,199.209c2.209,3.826,7.102,5.137,10.928,2.928l13.856-8c3.841-2.184,5.184-7.068,3-10.909s-7.068-5.184-10.909-3
				c-0.031,0.017-0.061,0.035-0.092,0.053l-13.856,8C153.742,190.49,152.431,195.383,154.64,199.209z"/>
			<path d="M140,184.569c3.826,2.209,8.719,0.898,10.928-2.928l8-13.856c2.184-3.841,0.841-8.725-3-10.909
				c-3.805-2.163-8.642-0.867-10.856,2.909l-8,13.856C134.863,177.467,136.174,182.36,140,184.569z"/>
		</g>
	</g>
</g>
<g>
</g>
<g>
</g>
<g>
</g>
<g>
</g>
<g>
</g>
<g>
</g>
<g>
</g>
<g>
</g>
<g>
</g>
<g>
</g>
<g>
</g>
<g>
</g>
<g>
</g>
<g>
</g>
<g>
</g>
</svg>
