<?xml version="1.0" encoding="iso-8859-1"?>
<!-- Generator: Adobe Illustrator 19.0.0, SVG Export Plug-In . SVG Version: 6.00 Build 0)  -->
<svg version="1.1" id="Capa_1" xmlns="http://www.w3.org/2000/svg" xmlns:xlink="http://www.w3.org/1999/xlink" x="0px" y="0px"
	 viewBox="0 0 512 512" style="enable-background:new 0 0 512 512;" xml:space="preserve">
<g>
	<g>
		<path d="M457.479,112.685H126.01c-7.651,0-13.875,6.225-13.875,13.876c0,2.902,0,326.6,0,331.432v0.036
			c0,7.651,6.224,13.876,13.875,13.876h0.037c5.146,0,327.535,0,331.241,0h0.192c7.651,0,13.876-6.225,13.876-13.876v-0.192
			c0-4.919,0-328.414,0-331.277C471.355,118.91,465.13,112.685,457.479,112.685z M127.104,127.654h329.283v277.444l-75.417-101.42
			c-3.589-4.826-8.771-7.593-14.219-7.593c0.998,0-7.867-0.948-14.221,7.593l-37.66,50.646l-59.258-79.691
			c-3.992-5.367-9.731-8.444-15.747-8.444s-11.755,3.079-15.745,8.444l-97.016,130.466V127.654z M127.103,456.937v-26.755
			l109.027-146.62c1.155-1.553,2.48-2.407,3.733-2.407c1.254,0,2.581,0.854,3.735,2.408l61.942,83.301
			c-9.373,12.606-60.841,81.821-66.976,90.072H127.103z M456.387,456.937L456.387,456.937H257.22
			c3.119-4.195,104.996-141.202,107.32-144.328c1.531-2.056,2.895-2.049,4.418,0l87.429,117.574V456.937z"/>
	</g>
</g>
<g>
	<g>
		<path d="M324.971,177.545c-22.448,0-40.711,18.263-40.711,40.711c0,22.448,18.262,40.71,40.711,40.71
			c22.447,0,40.71-18.263,40.71-40.71C365.681,195.808,347.418,177.545,324.971,177.545z M324.971,243.997
			c-14.194,0-25.742-11.547-25.742-25.741s11.548-25.742,25.742-25.742c14.194,0,25.741,11.548,25.741,25.742
			S339.165,243.997,324.971,243.997z"/>
	</g>
</g>
<g>
	<g>
		<path d="M377.778,0h-7.071c-4.134,0-7.484,3.351-7.484,7.484s3.35,7.484,7.484,7.484h7.071c4.133,0,7.484-3.351,7.484-7.484
			S381.913,0,377.778,0z"/>
	</g>
</g>
<g>
	<g>
		<path d="M335.349,0h-7.072c-4.134,0-7.484,3.351-7.484,7.484s3.35,7.484,7.484,7.484h7.072c4.134,0,7.484-3.351,7.484-7.484
			S339.484,0,335.349,0z"/>
	</g>
</g>
<g>
	<g>
		<path d="M123.202,0h-7.072c-4.134,0-7.484,3.351-7.484,7.484s3.35,7.484,7.484,7.484h7.072c4.134,0,7.484-3.351,7.484-7.484
			S127.336,0,123.202,0z"/>
	</g>
</g>
<g>
	<g>
		<path d="M420.207,0h-7.071c-4.134,0-7.484,3.351-7.484,7.484s3.35,7.484,7.484,7.484h7.071c4.134,0,7.484-3.351,7.484-7.484
			S424.342,0,420.207,0z"/>
	</g>
</g>
<g>
	<g>
		<path d="M80.773,0h-7.071c-4.134,0-7.484,3.351-7.484,7.484s3.35,7.484,7.484,7.484h7.071c4.133,0,7.484-3.351,7.484-7.484
			S84.907,0,80.773,0z"/>
	</g>
</g>
<g>
	<g>
		<path d="M250.49,0h-7.071c-4.134,0-7.484,3.351-7.484,7.484s3.35,7.484,7.484,7.484h7.071c4.133,0,7.484-3.351,7.484-7.484
			S254.624,0,250.49,0z"/>
	</g>
</g>
<g>
	<g>
		<path d="M208.06,0h-7.071c-4.134,0-7.484,3.351-7.484,7.484s3.35,7.484,7.484,7.484h7.071c4.134,0,7.484-3.351,7.484-7.484
			S212.194,0,208.06,0z"/>
	</g>
</g>
<g>
	<g>
		<path d="M165.632,0h-7.072c-4.134,0-7.484,3.351-7.484,7.484s3.35,7.484,7.484,7.484h7.072c4.133,0,7.484-3.351,7.484-7.484
			S169.766,0,165.632,0z"/>
	</g>
</g>
<g>
	<g>
		<path d="M292.919,0h-7.072c-4.134,0-7.484,3.351-7.484,7.484s3.35,7.484,7.484,7.484h7.072c4.134,0,7.484-3.351,7.484-7.484
			S297.053,0,292.919,0z"/>
	</g>
</g>
<g>
	<g>
		<path d="M8.035,181.839c-4.134,0-7.484,3.351-7.484,7.484v7.071c0,4.134,3.35,7.484,7.484,7.484s7.484-3.35,7.484-7.484v-7.071
			C15.519,185.19,12.169,181.839,8.035,181.839z"/>
	</g>
</g>
<g>
	<g>
		<path d="M432.475,23.092c-4.134,0-7.484,3.351-7.484,7.484v7.071c0,4.133,3.35,7.484,7.484,7.484s7.484-3.351,7.484-7.484v-7.071
			C439.959,26.443,436.609,23.092,432.475,23.092z"/>
	</g>
</g>
<g>
	<g>
		<path d="M8.035,224.269c-4.134,0-7.484,3.35-7.484,7.484v7.071c0,4.134,3.35,7.484,7.484,7.484s7.484-3.35,7.484-7.484v-7.071
			C15.519,227.619,12.169,224.269,8.035,224.269z"/>
	</g>
</g>
<g>
	<g>
		<path d="M8.035,12.122c-4.134,0-7.484,3.351-7.484,7.484v7.071c0,4.133,3.35,7.484,7.484,7.484s7.484-3.351,7.484-7.484v-7.071
			C15.519,15.473,12.169,12.122,8.035,12.122z"/>
	</g>
</g>
<g>
	<g>
		<path d="M8.035,266.697c-4.134,0-7.484,3.351-7.484,7.484v7.072c0,4.134,3.35,7.484,7.484,7.484s7.484-3.35,7.484-7.484v-7.072
			C15.519,270.047,12.169,266.697,8.035,266.697z"/>
	</g>
</g>
<g>
	<g>
		<path d="M8.035,54.551c-4.134,0-7.484,3.351-7.484,7.484v7.071c0,4.133,3.35,7.484,7.484,7.484s7.484-3.351,7.484-7.484v-7.071
			C15.519,57.902,12.169,54.551,8.035,54.551z"/>
	</g>
</g>
<g>
	<g>
		<path d="M8.035,96.981c-4.134,0-7.484,3.351-7.484,7.484v7.071c0,4.133,3.35,7.484,7.484,7.484s7.484-3.351,7.484-7.484v-7.071
			C15.519,100.332,12.169,96.981,8.035,96.981z"/>
	</g>
</g>
<g>
	<g>
		<path d="M8.035,139.41c-4.134,0-7.484,3.351-7.484,7.484v7.071c0,4.133,3.35,7.484,7.484,7.484s7.484-3.351,7.484-7.484v-7.071
			C15.519,142.761,12.169,139.41,8.035,139.41z"/>
	</g>
</g>
<g>
	<g>
		<path d="M38.343,0h-7.071c-4.134,0-7.484,3.351-7.484,7.484s3.351,7.484,7.484,7.484h7.071c4.134,0,7.484-3.351,7.484-7.484
			S42.477,0,38.343,0z"/>
	</g>
</g>
<g>
	<g>
		<path d="M497.3,72.592h-57.362c-0.216-3.94-3.469-7.071-7.463-7.071s-7.248,3.131-7.463,7.071H309.209
			c-4.134,0-7.484,3.351-7.484,7.484c0,4.133,3.35,7.484,7.484,7.484h187.272v409.471H87.01V321.032c0-4.134-3.35-7.484-7.484-7.484
			s-7.484,3.35-7.484,7.484v103.854c-0.79-0.284-1.639-0.447-2.528-0.447h-7.072c-4.134,0-7.485,3.35-7.485,7.484
			s3.35,7.484,7.484,7.484h7.072c0.888,0,1.737-0.163,2.528-0.447v58.89c0,7.803,6.348,14.149,14.149,14.149H497.3
			c7.803,0,14.149-6.348,14.149-14.149V86.74C511.449,78.939,505.101,72.592,497.3,72.592z"/>
	</g>
</g>
<g>
	<g>
		<path d="M27.083,424.44h-7.072c-4.134,0-7.484,3.35-7.484,7.484s3.35,7.484,7.484,7.484h7.072c4.134,0,7.484-3.35,7.484-7.484
			S31.218,424.44,27.083,424.44z"/>
	</g>
</g>
<g>
	<g>
		<path d="M8.035,393.986c-4.134,0-7.484,3.35-7.484,7.484v7.071c0,4.134,3.35,7.484,7.484,7.484s7.484-3.35,7.484-7.484v-7.071
			C15.519,397.336,12.169,393.986,8.035,393.986z"/>
	</g>
</g>
<g>
	<g>
		<path d="M8.035,351.556c-4.134,0-7.484,3.351-7.484,7.484v7.071c0,4.134,3.35,7.484,7.484,7.484s7.484-3.35,7.484-7.484v-7.071
			C15.519,354.906,12.169,351.556,8.035,351.556z"/>
	</g>
</g>
<g>
	<g>
		<path d="M8.035,309.127c-4.134,0-7.484,3.35-7.484,7.484v7.072c0,4.134,3.35,7.484,7.484,7.484s7.484-3.35,7.484-7.484v-7.072
			C15.519,312.477,12.169,309.127,8.035,309.127z"/>
	</g>
</g>
<g>
	<g>
		<path d="M274.282,72.592H86.19c-7.803,0-14.149,6.347-14.149,14.148v199.365c0,4.134,3.35,7.484,7.484,7.484
			s7.484-3.35,7.484-7.484V87.56h187.273c4.134,0,7.484-3.351,7.484-7.484C281.766,75.943,278.416,72.592,274.282,72.592z"/>
	</g>
</g>
<g>
</g>
<g>
</g>
<g>
</g>
<g>
</g>
<g>
</g>
<g>
</g>
<g>
</g>
<g>
</g>
<g>
</g>
<g>
</g>
<g>
</g>
<g>
</g>
<g>
</g>
<g>
</g>
<g>
</g>
</svg>
